# xmcd
#
# Track frame offsets:
#	150
#	25359
#	45989
#	62634
#	80298
#	98477
#	116430
#	134415
#	152473
#	169321
#	186078
#	204137
#	220148
#	237526
#	255674
#	272310
#	285213
#	301863
#
# Disc length: 4259 seconds
#
# Revision: 2
# Processed by: cddbd v1.5.2PL0 Copyright (c) Steve Scherf et al.
# Submitted via: audiograbber 1.83.01
#
DISCID=e210a112
DTITLE=Compilation - Promo Only Rhythm  Radio - May 2006
DYEAR=2006
DGENRE=Rhythmic
TTITLE0=T-Pain feat R Kelly Pimp C (Of UGK) Too Short MJG Twista  And Paul Wall
TTITLE0=I'm N Luv (Wit A Stripper) 2 "Tha Remix"
TTITLE1=Cheri Dennis feat Jim Jones and Yung Joc - I Love You
TTITLE2=Juvenille - What's Happenin'
TTITLE3=Chris Brown feat Lil' Wayne - Gimme That Remix (Main Version)
TTITLE4=Mary J. Blige feat Brook-Lyn - Enough Cryin 
TTITLE5=LeToya - Torn (Edit)
TTITLE6=Obie Trice feat Akon - Snitch
TTITLE7=Dem Franchize Boyz - Ridin' Rims
TTITLE8=Bubba Sparxxx - Heat It Up
TTITLE9=Mila J - Complete 
TTITLE10=Yung Joc - Goin' Down 
TTITLE11=Beenie Man - Hmm Hmm
TTITLE12=India.Arie feat Akon - I Am Not My Hair (Konvict Remix)
TTITLE13=Megan Rochell feat Fabolous - The One You Need
TTITLE14=Mario Vazquez - Gallery
TTITLE15=Ak'setn feat Beenie Man - Zingy 
TTITLE16=Pitbull - Bojangles
TTITLE17=Shakira feat Wyclef Jean - Hips Don't Lie (Wyclef Remix)
EXTD=
EXTT0=
EXTT1=
EXTT2=
EXTT3=
EXTT4=
EXTT5=
EXTT6=
EXTT7=
EXTT8=
EXTT9=
EXTT10=
EXTT11=
EXTT12=
EXTT13=
EXTT14=
EXTT15=
EXTT16=
EXTT17=
PLAYORDER=
